<?xml version="1.0" encoding="utf-8"?>
<svg stroke-width="0.501" stroke-linejoin="bevel" fill-rule="evenodd" version="1.1" overflow="visible" width="315pt" height="165pt" viewBox="0.0020000000949949026 0 314.99700927734375 180" id="svg2" xmlns="http://www.w3.org/2000/svg" xmlns:bx="https://boxy-svg.com">
  <g>
    <g>
      <path d="M 70.281 64.753 C 62.722 60.855 56.976 57.285 53.011 51.008 C 49.996 46.237 48.61 39.858 51.253 33.811 C 57.753 20.701 72.956 15.082 83.313 11.997 C 95.929 8.239 114.38 6.159 129.033 6.929 C 145.33 7.787 161.077 10.58 175.4 17.848 C 181.867 21.135 189.015 26.706 191.014 31.592" stroke-miterlimit="79.8403193612775" id="path99" style="fill: none; stroke: rgb(0, 0, 0); stroke-width: 3.657; stroke-linecap: round; stroke-miterlimit: 79.8403; font-size: 16px; font-family: &quot;Times New Roman&quot;;"/>
      <path d="M 161.656 69.215 C 149.635 72.371 135.201 74.353 122.092 74.353 C 109.643 74.353 99.287 73.362 86.198 70.424" stroke-miterlimit="79.8403193612775" id="path101" style="fill: none; stroke: rgb(0, 0, 0); stroke-width: 3.657; stroke-linecap: round; stroke-miterlimit: 79.8403; font-size: 16px; font-family: &quot;Times New Roman&quot;;"/>
      <path d="M 196.656 84.388 C 188.07 83.947 181.454 83.306 172.326 78.112 C 161.699 71.583 159.029 64.422 159.212 56.975 C 160.208 48.765 165.136 42.926 171.606 38.935 C 179.179 34.531 186.958 32.556 194.2 32.236 C 203.247 31.847 214.735 34.132 222.831 39.346 C 228.898 43.332 234.115 49.576 234.393 56.835 C 235.105 66.65 228.028 77.861 211.172 82.38" stroke-miterlimit="79.8403193612775" id="path103" style="fill: none; stroke: rgb(0, 102, 0); stroke-width: 3.657; stroke-linecap: round; stroke-miterlimit: 79.8403; font-size: 16px; font-family: &quot;Times New Roman&quot;;"/>
      <path d="M 196.797 84.468 L 213.776 95.216 L 211.12 82.431" stroke-miterlimit="79.8403193612775" id="path135" style="fill: none; stroke: rgb(0, 102, 0); stroke-width: 3.656; stroke-linecap: round; stroke-miterlimit: 79.8403; font-size: 16px; font-family: &quot;Times New Roman&quot;;"/>
      <path d="M 70.305 64.888 L 57.748 94.077 L 86.165 70.397" stroke-miterlimit="79.8403193612775" id="path137" style="fill: none; stroke: rgb(0, 0, 0); stroke-width: 3.657; stroke-linecap: round; stroke-miterlimit: 79.8403; font-size: 16px; font-family: &quot;Times New Roman&quot;;"/>
    </g>
    <g id="Group_1" transform="matrix(1, 0, 0, -1, 0, 165)" stroke-miterlimit="79.8403193612775" style="fill: rgb(0, 0, 0); stroke: none; font-size: 16px; font-family: &quot;Times New Roman&quot;;">
      <path d="m 41.031,58.819 c 0,3.445 -1.758,5.203 -5.274,5.203 L 21.695,64.057 C 11.148,64.057 5.91,59.417 5.98,50.135 5.945,40.643 11.253,35.897 21.871,35.967 l 3.41,0 c 3.445,-0.07 5.203,-1.23 5.203,-3.55 -0.07,-2.391 -1.828,-3.586 -5.309,-3.586 l -14.203,0 c -3.375,-0.035 -5.097,-1.864 -5.097,-5.52 0,-3.269 1.722,-4.886 5.132,-4.851 l 14.239,-0.035 c 10.406,0 15.644,4.71 15.714,14.062 0,9.211 -5.238,13.887 -15.714,14.063 l -3.411,0 c -3.621,0 -5.414,1.125 -5.414,3.375 0,2.39 1.793,3.585 5.379,3.585 l 14.098,0 c 3.34,0.071 5.062,1.829 5.133,5.309 z" id="path107" style="marker-start:none;marker-end:none"/>
      <path d="m 63.917,23.768 0,35.051 c 0,3.445 -1.758,5.238 -5.274,5.309 L 53.37,64.057 c -3.516,-0.07 -5.273,-1.898 -5.273,-5.449 -0.035,-3.41 1.687,-5.098 5.273,-5.098 l 0,-29.742 c 0,-3.586 1.758,-5.343 5.344,-5.343 3.445,0 5.203,1.757 5.203,5.343 z" id="path109" style="marker-start:none;marker-end:none"/>
      <path d="m 71.054,58.749 0,-49.253 c 0,-3.481 1.757,-5.238 5.273,-5.238 3.516,0 5.273,1.792 5.273,5.378 l 0,8.789 12.375,0 c 10.547,0 15.821,5.378 15.821,16.171 l 0,13.676 c 0,10.547 -5.309,15.856 -15.891,15.856 l -17.648,0 c -3.481,0 -5.203,-1.793 -5.203,-5.379 z M 93.905,53.51 c 3.551,0 5.344,-1.722 5.344,-5.097 l 0,-14.028 c 0,-3.621 -1.793,-5.414 -5.344,-5.414 l -12.305,0 0,24.539 12.305,0 z" id="path111" style="marker-start:none;marker-end:none"/>
      <path d="m 123.928,60.507 c 1.125,0 2.25,-0.317 3.375,-0.915 1.125,-0.597 1.969,-1.441 2.602,-2.566 0.632,-1.125 0.949,-2.32 0.949,-3.516 0,-1.195 -0.317,-2.355 -0.914,-3.445 -0.633,-1.125 -1.477,-1.969 -2.602,-2.566 -1.125,-0.633 -2.25,-0.914 -3.41,-0.914 -1.23,0 -2.391,0.281 -3.48,0.914 -1.125,0.597 -1.969,1.441 -2.602,2.566 -0.633,1.09 -0.914,2.25 -0.914,3.445 0,1.196 0.281,2.391 0.914,3.516 0.633,1.125 1.477,1.969 2.602,2.566 1.125,0.598 2.285,0.915 3.48,0.915 z m 0,-28.09 c 1.125,0 2.25,-0.317 3.375,-0.914 1.125,-0.598 1.969,-1.442 2.602,-2.567 0.632,-1.125 0.949,-2.32 0.949,-3.515 0,-1.196 -0.317,-2.321 -0.914,-3.446 -0.633,-1.125 -1.477,-1.968 -2.602,-2.566 -1.125,-0.633 -2.25,-0.914 -3.41,-0.914 -1.23,0 -2.391,0.281 -3.48,0.914 -1.125,0.598 -1.969,1.441 -2.602,2.566 -0.633,1.125 -0.914,2.25 -0.914,3.446 0,1.195 0.281,2.39 0.914,3.515 0.633,1.125 1.477,1.969 2.602,2.567 1.125,0.597 2.285,0.914 3.48,0.914 z" id="path113" style="marker-start:none;marker-end:none"/>
    </g>
    <g id="Group_3" transform="matrix(1, 0, 0, -1, 0, 165)" stroke-miterlimit="79.8403193612775" style="fill: rgb(0, 102, 0); stroke: none; font-size: 16px; font-family: &quot;Times New Roman&quot;;">
      <path d="m 193.761,17.23 c 3.586,0.07 5.379,1.827 5.379,5.308 l 0,35.051 c 0,3.55 -1.758,5.343 -5.203,5.343 -3.586,0 -5.344,-1.793 -5.344,-5.343 l 0,-29.743 -8.718,0 c -3.586,0 -5.344,1.793 -5.344,5.414 l 0,24.399 c 0,3.551 -1.758,5.344 -5.274,5.344 -3.515,0 -5.273,-1.758 -5.273,-5.274 l 0.07,-29.883 -8.754,0 c -3.586,0 -5.379,1.793 -5.379,5.414 l 0,24.399 c 0,3.551 -1.757,5.344 -5.273,5.344 -3.516,0 -5.273,-1.758 -5.273,-5.274 l 0,-24.258 c 0,-10.793 5.273,-16.171 15.82,-16.171 l 38.566,-0.07 z" id="path117" style="marker-start:none;marker-end:none"/>
      <path d="m 221.991,22.643 0,35.051 c 0,3.445 -1.758,5.238 -5.274,5.309 l -5.273,-0.071 c -3.516,-0.07 -5.273,-1.898 -5.273,-5.449 -0.035,-3.41 1.687,-5.098 5.273,-5.098 l 0,-29.742 c 0,-3.586 1.758,-5.343 5.344,-5.343 3.445,0 5.203,1.757 5.203,5.343 z" id="path119" style="marker-start:none;marker-end:none"/>
      <path d="m 264.284,57.694 c 0,3.445 -1.758,5.203 -5.274,5.203 l -14.062,0.035 c -10.547,0 -15.785,-4.64 -15.715,-13.922 -0.035,-9.492 5.273,-14.238 15.891,-14.168 l 3.41,0 c 3.445,-0.07 5.203,-1.23 5.203,-3.55 -0.07,-2.391 -1.828,-3.586 -5.309,-3.586 l -14.203,0 c -3.375,-0.035 -5.097,-1.864 -5.097,-5.52 0,-3.269 1.722,-4.886 5.132,-4.851 L 248.499,17.3 c 10.406,0 15.644,4.71 15.714,14.062 0,9.211 -5.238,13.887 -15.714,14.063 l -3.411,0 c -3.621,0 -5.414,1.125 -5.414,3.375 0,2.39 1.793,3.585 5.379,3.585 l 14.098,0 c 3.34,0.071 5.062,1.829 5.133,5.309 z" id="path121" style="marker-start:none;marker-end:none"/>
      <path d="m 310.092,22.432 c 0,3.516 -1.723,5.309 -5.168,5.309 l -17.649,0.035 c -3.586,0 -5.379,1.793 -5.379,5.379 l 0,1.758 15.891,0.035 c 3.516,0 5.238,1.687 5.238,5.133 0,3.586 -1.793,5.379 -5.343,5.449 l -15.786,-0.07 0,7.031 22.782,-0.035 c 3.55,0.07 5.343,1.793 5.379,5.238 0,3.516 -1.864,5.238 -5.52,5.238 l -27.914,0 c -3.516,0 -5.273,-1.757 -5.273,-5.273 l 0,-24.258 c 0,-10.793 5.273,-16.171 15.82,-16.171 l 17.648,0 c 3.516,0 5.274,1.722 5.274,5.202 z" id="path123" style="marker-start:none;marker-end:none"/>
    </g>
    <path d="M 148.588 173.146 L 147.108 173.146 L 146.928 171.646 L 146.868 171.626 C 146.495 172.159 145.991 172.576 145.358 172.876 C 144.725 173.176 144.018 173.326 143.238 173.326 C 142.078 173.326 141.161 173.006 140.488 172.366 C 139.821 171.726 139.488 170.743 139.488 169.416 C 139.488 168.243 139.858 167.329 140.598 166.676 C 141.345 166.029 142.435 165.706 143.868 165.706 C 144.855 165.706 145.791 165.863 146.678 166.176 L 146.678 164.966 C 146.678 164.026 146.458 163.356 146.018 162.956 C 145.571 162.563 144.841 162.366 143.828 162.366 C 142.588 162.366 141.448 162.613 140.408 163.106 L 140.228 161.486 C 141.388 160.953 142.698 160.686 144.158 160.686 C 145.758 160.686 146.895 161.039 147.568 161.746 C 148.248 162.459 148.588 163.629 148.588 165.256 L 148.588 173.146 Z M 146.658 169.686 L 146.658 167.566 C 146.151 167.266 145.338 167.116 144.218 167.116 C 142.278 167.116 141.308 167.876 141.308 169.396 C 141.308 170.956 142.128 171.736 143.768 171.736 C 144.521 171.736 145.191 171.523 145.778 171.096 C 146.365 170.669 146.658 170.199 146.658 169.686 ZM 161.295 165.066 L 161.295 173.146 L 159.375 173.146 L 159.375 165.066 C 159.375 163.359 158.451 162.506 156.605 162.506 C 156.058 162.506 155.515 162.629 154.975 162.876 C 154.435 163.123 154.028 163.456 153.755 163.876 L 153.755 173.146 L 151.805 173.146 L 151.805 160.966 L 153.205 160.866 L 153.525 162.156 L 153.595 162.156 C 154.481 161.189 155.661 160.706 157.135 160.706 C 158.448 160.706 159.471 161.073 160.205 161.806 C 160.931 162.546 161.295 163.633 161.295 165.066 ZM 183.175 173.146 L 180.815 173.146 L 179.585 169.476 L 172.815 169.476 L 171.585 173.146 L 169.335 173.146 L 174.995 157.766 L 177.495 157.766 L 183.175 173.146 Z M 176.285 159.306 L 176.225 159.306 L 175.705 160.906 L 173.435 167.656 L 178.985 167.656 L 176.755 160.906 L 176.285 159.306 ZM 187.64 157.766 L 187.64 171.176 L 194.79 171.176 L 194.73 173.146 L 185.53 173.146 L 185.53 157.766 L 187.64 157.766 ZM 199.367 166.036 L 199.367 171.236 L 207.137 171.236 L 207.076 173.146 L 197.277 173.146 L 197.277 157.766 L 206.727 157.766 L 206.786 159.696 L 199.367 159.696 L 199.367 164.266 L 205.716 164.266 L 205.716 166.036 L 199.367 166.036 ZM 225.748 158.226 L 225.488 160.106 C 224.568 159.686 223.495 159.476 222.268 159.476 C 220.615 159.476 219.431 159.909 218.718 160.776 C 218.005 161.643 217.648 163.156 217.648 165.316 C 217.648 167.623 218.008 169.233 218.728 170.146 C 219.448 171.053 220.648 171.506 222.328 171.506 C 223.488 171.506 224.561 171.259 225.548 170.766 L 225.808 172.536 C 224.635 173.136 223.385 173.436 222.058 173.436 C 219.778 173.436 218.105 172.783 217.038 171.476 C 215.971 170.169 215.438 168.116 215.438 165.316 C 215.438 162.663 215.981 160.699 217.068 159.426 C 218.155 158.146 219.851 157.506 222.158 157.506 C 223.511 157.506 224.708 157.746 225.748 158.226 ZM 236.889 162.206 C 237.716 163.199 238.129 164.823 238.129 167.076 C 238.129 169.329 237.716 170.949 236.889 171.936 C 236.062 172.923 234.726 173.416 232.879 173.416 C 231.026 173.416 229.676 172.919 228.829 171.926 C 227.976 170.933 227.549 169.316 227.549 167.076 C 227.549 164.836 227.979 163.216 228.839 162.216 C 229.692 161.223 231.039 160.726 232.879 160.726 C 234.726 160.726 236.062 161.219 236.889 162.206 Z M 230.309 163.426 C 229.809 164.126 229.559 165.343 229.559 167.076 C 229.559 168.816 229.809 170.033 230.309 170.726 C 230.809 171.426 231.666 171.776 232.879 171.776 C 234.072 171.776 234.916 171.426 235.409 170.726 C 235.896 170.033 236.139 168.816 236.139 167.076 C 236.139 165.343 235.896 164.126 235.409 163.426 C 234.916 162.733 234.072 162.386 232.879 162.386 C 231.666 162.386 230.809 162.733 230.309 163.426 ZM 256.587 165.006 L 256.587 173.146 L 254.657 173.146 L 254.657 165.026 C 254.657 163.359 253.81 162.526 252.117 162.526 C 251.417 162.526 250.837 162.726 250.377 163.126 C 249.923 163.519 249.697 164.086 249.697 164.826 L 249.697 173.146 L 247.767 173.146 L 247.767 164.826 C 247.767 164.033 247.547 163.446 247.107 163.066 C 246.673 162.693 246.093 162.506 245.367 162.506 C 244.847 162.506 244.353 162.633 243.887 162.886 C 243.413 163.139 243.053 163.469 242.807 163.876 L 242.807 173.146 L 240.857 173.146 L 240.857 160.966 L 242.257 160.866 L 242.597 162.176 L 242.667 162.176 C 243.44 161.223 244.49 160.746 245.817 160.746 C 247.443 160.746 248.543 161.366 249.117 162.606 L 249.157 162.606 C 249.843 161.353 250.993 160.726 252.607 160.726 C 253.82 160.726 254.787 161.086 255.507 161.806 C 256.227 162.533 256.587 163.599 256.587 165.006 ZM 269.909 167.016 C 269.909 171.256 268.315 173.376 265.129 173.376 C 263.655 173.376 262.549 172.929 261.809 172.036 L 261.769 172.056 L 261.789 173.716 L 261.789 176.176 L 259.799 176.176 L 259.799 160.986 L 261.199 160.886 L 261.609 162.156 C 262.535 161.203 263.742 160.726 265.229 160.726 C 266.802 160.726 267.975 161.203 268.749 162.156 C 269.522 163.116 269.909 164.736 269.909 167.016 Z M 267.898 167.016 C 267.898 165.323 267.645 164.146 267.139 163.486 C 266.632 162.833 265.839 162.506 264.759 162.506 C 263.432 162.506 262.442 162.986 261.789 163.946 L 261.789 170.216 C 262.375 171.209 263.332 171.706 264.659 171.706 C 265.712 171.706 266.515 171.366 267.069 170.686 C 267.622 169.999 267.898 168.776 267.898 167.016 ZM 281.141 173.146 L 279.661 173.146 L 279.481 171.646 L 279.421 171.626 C 279.048 172.159 278.544 172.576 277.911 172.876 C 277.278 173.176 276.571 173.326 275.791 173.326 C 274.631 173.326 273.714 173.006 273.041 172.366 C 272.374 171.726 272.041 170.743 272.041 169.416 C 272.041 168.243 272.411 167.329 273.151 166.676 C 273.898 166.029 274.988 165.706 276.421 165.706 C 277.408 165.706 278.344 165.863 279.231 166.176 L 279.231 164.966 C 279.231 164.026 279.011 163.356 278.571 162.956 C 278.124 162.563 277.394 162.366 276.381 162.366 C 275.141 162.366 274.001 162.613 272.961 163.106 L 272.781 161.486 C 273.941 160.953 275.251 160.686 276.711 160.686 C 278.311 160.686 279.448 161.039 280.121 161.746 C 280.801 162.459 281.141 163.629 281.141 165.256 L 281.141 173.146 Z M 279.211 169.686 L 279.211 167.566 C 278.704 167.266 277.891 167.116 276.771 167.116 C 274.831 167.116 273.861 167.876 273.861 169.396 C 273.861 170.956 274.681 171.736 276.321 171.736 C 277.074 171.736 277.744 171.523 278.331 171.096 C 278.918 170.669 279.211 170.199 279.211 169.686 ZM 293.848 165.066 L 293.848 173.146 L 291.928 173.146 L 291.928 165.066 C 291.928 163.359 291.004 162.506 289.158 162.506 C 288.611 162.506 288.068 162.629 287.528 162.876 C 286.988 163.123 286.581 163.456 286.308 163.876 L 286.308 173.146 L 284.358 173.146 L 284.358 160.966 L 285.758 160.866 L 286.078 162.156 L 286.148 162.156 C 287.034 161.189 288.214 160.706 289.688 160.706 C 291.001 160.706 292.024 161.073 292.758 161.806 C 293.484 162.546 293.848 163.633 293.848 165.066 ZM 299.198 174.906 C 299.691 174.906 300.104 174.789 300.438 174.556 C 300.778 174.329 301.078 173.929 301.338 173.356 L 301.398 173.146 L 296.048 160.926 L 298.298 160.926 L 301.788 169.806 L 302.358 171.346 L 302.418 171.346 L 302.868 169.766 L 305.678 160.926 L 307.768 160.926 L 303.318 173.286 C 302.911 174.393 302.404 175.193 301.798 175.686 C 301.184 176.179 300.428 176.426 299.528 176.426 C 298.834 176.426 298.208 176.296 297.648 176.036 L 297.828 174.586 C 298.281 174.799 298.738 174.906 299.198 174.906 Z" transform="matrix(1, 0, 0, 1, 0, 0)" style="white-space: pre;"/>
  </g>
</svg>
